<?xml version="1.0" encoding="utf-8"?>
<!-- Generator: Adobe Illustrator 16.0.0, SVG Export Plug-In . SVG Version: 6.00 Build 0)  -->
<!DOCTYPE svg PUBLIC "-//W3C//DTD SVG 1.1//EN" "http://www.w3.org/Graphics/SVG/1.1/DTD/svg11.dtd">
<svg version="1.1" id="Layer_1" xmlns="http://www.w3.org/2000/svg" xmlns:xlink="http://www.w3.org/1999/xlink" x="0px" y="0px"
	 width="1400px" height="620px" viewBox="0 0 1400 620" enable-background="new 0 0 1400 620" xml:space="preserve">
<path d="M1399,926c0,0-19.667-32.332-163-54.999S987,869,957,869.334c0,0-268.333,25.999-316,33.333
	c0,0-198.333,23.332-274.333,19.333c0,0-205.667-1-337.333-51.666L0,859.362V926H1399z"/>
<path fill="#FFFFFF" d="M0,0v553.362c0,0,131.065,56.505,329.7,61.571c0,0,91.636,6.23,277.901-14.553s3.224-0.346,3.224-0.346
	s307.731-34.873,385.275-40.066c0,0,115.252-20.657,283.076,12.854c0,0,84.491,13.508,119.824,47.177V0"/>
</svg>
